<?xml version="1.0" standalone="no"?>
<!DOCTYPE svg PUBLIC "-//W3C//DTD SVG 20010904//EN"
 "http://www.w3.org/TR/2001/REC-SVG-20010904/DTD/svg10.dtd">
<svg version="1.0" xmlns="http://www.w3.org/2000/svg"
 width="523.000000pt" height="434.000000pt" viewBox="0 0 523.000000 434.000000"
 preserveAspectRatio="xMidYMid meet">

<g transform="translate(0.000000,434.000000) scale(0.100000,-0.100000)"
fill="#000000" stroke="none">
<path d="M2504 4239 c-791 -50 -1529 -541 -1888 -1257 -77 -154 -152 -398
-181 -588 -20 -132 -20 -424 0 -563 61 -415 261 -806 573 -1120 351 -351 824
-577 1347 -642 142 -18 454 -15 598 4 721 99 1282 448 1642 1022 210 334 312
759 284 1172 -49 704 -516 1374 -1201 1724 -378 192 -766 274 -1174 248z m74
-173 c3 -32 1 -37 -15 -34 -19 3 -29 38 -19 65 10 26 31 8 34 -31z m120 7 c-2
-26 -8 -38 -18 -38 -10 0 -16 12 -18 38 -3 32 0 37 18 37 18 0 21 -5 18 -37z
m-244 11 c11 -29 7 -64 -9 -64 -16 0 -30 42 -21 65 7 20 22 19 30 -1z m366
-19 c0 -28 -4 -35 -20 -35 -20 0 -26 22 -14 54 12 30 34 18 34 -19z m120 -15
c0 -33 -3 -40 -20 -40 -21 0 -25 16 -14 58 11 39 34 27 34 -18z m-606 14 c3
-9 6 -27 6 -41 0 -18 -5 -24 -17 -21 -23 4 -32 78 -10 78 8 0 18 -7 21 -16z
m726 -34 c0 -33 -3 -40 -20 -40 -22 0 -23 3 -14 49 10 46 34 40 34 -9z m-844
-18 c6 -27 4 -32 -13 -32 -25 0 -41 59 -21 71 17 11 26 0 34 -39z m966 -8 c-4
-34 -16 -49 -31 -40 -14 9 -14 32 0 57 15 29 35 18 31 -17z m-1092 -10 c14
-36 13 -44 -9 -44 -17 0 -31 25 -31 58 0 22 30 12 40 -14z m1206 -26 c-8 -38
-11 -42 -30 -35 -12 5 -13 12 -5 37 15 42 44 41 35 -2z m-1326 -14 c13 -34 13
-44 -3 -44 -13 0 -37 40 -37 60 0 21 31 9 40 -16z m1443 -29 c-3 -35 -14 -47
-32 -36 -12 8 -12 14 -1 40 15 38 36 35 33 -4z m112 -66 c-10 -18 -20 -26 -30
-23 -19 7 -19 8 1 45 12 25 18 28 29 19 12 -10 12 -16 0 -41z m-645 30 c335
-41 628 -163 923 -383 238 -177 397 -362 531 -618 180 -343 236 -715 162
-1081 -61 -300 -191 -561 -395 -794 -308 -352 -803 -583 -1328 -619 l-93 -7 0
112 0 111 44 0 c64 0 209 27 290 54 66 22 73 23 101 8 76 -39 184 -52 260 -31
56 15 135 50 135 59 0 13 -138 60 -196 66 l-55 7 74 43 75 43 47 -15 c34 -12
71 -15 135 -12 75 3 98 9 153 37 35 18 86 55 113 82 l48 49 -109 -1 c-71 0
-134 -6 -177 -18 -37 -9 -65 -14 -62 -9 3 4 31 28 64 53 l58 45 96 0 c108 0
169 16 231 61 42 31 135 143 135 163 0 9 -32 4 -109 -15 -119 -30 -169 -52
-246 -108 l-50 -36 66 80 c36 44 73 92 83 108 16 24 24 27 76 27 131 0 235 69
304 199 41 78 43 86 19 76 -10 -4 -49 -16 -87 -26 -82 -24 -142 -52 -178 -87
-38 -35 -35 -24 14 63 41 71 44 74 87 80 120 18 204 101 246 243 l6 22 -66
-25 c-66 -24 -109 -50 -152 -88 -27 -24 -27 -24 -7 59 14 56 20 65 43 70 100
21 175 82 199 162 19 63 14 67 -32 24 -24 -22 -59 -48 -77 -57 -28 -15 -20 -4
44 66 42 46 72 85 68 87 -7 2 -91 -34 -153 -66 -5 -2 -8 3 -8 10 0 8 20 30 44
50 56 47 76 91 75 165 0 60 -17 125 -18 73 -1 -33 -53 -141 -76 -160 -17 -13
-18 -13 -12 0 60 143 59 142 55 224 -4 63 -11 94 -33 138 -22 45 -31 55 -41
47 -19 -16 -53 -126 -60 -197 l-7 -63 -43 42 c-24 24 -46 41 -48 38 -3 -2 7
-27 20 -54 29 -59 67 -166 61 -171 -2 -3 -24 28 -48 68 l-44 73 -3 -50 c-5
-70 22 -131 83 -190 l52 -50 -15 -65 -15 -65 -15 44 c-15 44 -116 161 -139
161 -6 0 7 -35 28 -77 21 -43 41 -91 44 -108 l6 -30 -23 29 c-13 16 -35 50
-50 75 l-28 46 0 -66 c0 -89 22 -147 74 -198 l44 -43 -28 -82 c-15 -45 -36
-99 -47 -121 l-20 -39 -5 96 c-3 88 -7 103 -42 171 -41 81 -128 187 -142 174
-5 -5 -9 -88 -9 -185 l0 -177 33 -67 c18 -37 47 -79 64 -93 28 -23 30 -29 19
-51 -10 -23 -111 -184 -114 -184 -1 0 -2 48 -2 107 0 104 -1 111 -37 186 -21
43 -58 105 -84 138 -42 55 -48 59 -58 43 -7 -12 -11 -79 -11 -174 0 -154 0
-155 32 -223 18 -38 47 -87 64 -108 l31 -40 -48 -56 c-27 -30 -68 -71 -92 -91
l-42 -35 31 67 c36 76 41 161 15 231 l-15 40 0 -51 c-1 -28 -9 -75 -18 -105
l-17 -54 -6 105 c-5 90 -10 115 -37 172 -18 38 -36 68 -42 68 -5 0 -19 -30
-31 -66 -41 -122 -16 -298 51 -371 41 -43 4 -103 -99 -161 l-39 -21 24 48 c13
26 27 73 30 102 6 57 -12 169 -27 169 -14 0 -78 -81 -100 -124 -30 -63 -34
-116 -16 -179 9 -30 16 -58 16 -62 0 -10 -195 -99 -270 -123 -77 -25 -181 -47
-268 -57 l-63 -7 3 68 3 69 85 7 c117 11 265 50 371 100 49 22 89 44 89 48 0
3 -6 14 -13 24 -11 16 -18 14 -97 -23 -97 -45 -207 -75 -330 -90 -113 -15
-110 -15 -110 17 0 20 14 41 50 77 l51 50 82 -3 c149 -6 259 47 388 187 l70
76 -73 3 c-96 5 -167 -12 -228 -53 -61 -41 -65 -30 -7 19 41 36 41 36 12 30
-85 -19 -186 -93 -232 -170 -10 -18 -39 -49 -63 -69 l-45 -38 -3 88 -3 87 48
65 48 64 56 -6 c123 -13 296 50 431 157 37 29 68 56 68 60 0 15 -79 23 -215
23 -133 0 -143 -2 -201 -28 -67 -31 -127 -88 -166 -157 -14 -25 -35 -54 -47
-64 l-21 -19 0 109 0 109 46 68 c35 53 49 67 62 61 31 -13 188 -16 241 -5 28
6 68 19 89 28 l37 18 -70 3 -70 3 90 34 c104 40 184 77 185 87 0 11 -127 21
-218 16 -48 -3 -109 -13 -135 -22 -27 -10 -51 -15 -53 -13 -3 2 28 21 68 42
68 36 79 39 197 46 149 9 206 25 290 79 69 45 230 195 219 205 -12 12 -253
-14 -320 -35 -35 -11 -93 -38 -127 -60 l-63 -41 22 31 c29 40 72 72 150 110
l65 32 -50 -6 c-79 -9 -184 -67 -248 -135 -30 -33 -65 -81 -78 -108 -23 -50
-35 -63 -57 -63 -8 0 -3 15 14 39 27 42 104 213 104 233 0 27 -69 -58 -110
-134 -40 -75 -44 -80 -57 -62 -13 17 -12 19 5 22 14 2 18 9 15 22 -5 17 21 67
42 82 7 5 6 8 -1 8 -6 0 -35 -17 -65 -39 -55 -39 -97 -86 -137 -153 -27 -44
-54 -161 -46 -203 4 -22 0 -38 -15 -55 l-20 -25 -1 183 0 183 44 68 44 68 62
6 c83 7 192 61 270 134 33 31 59 58 56 60 -2 2 -57 -9 -122 -26 -64 -17 -119
-31 -121 -31 -17 0 22 27 104 72 114 63 168 109 227 192 41 57 163 276 154
276 -3 0 -36 -11 -74 -24 -128 -43 -218 -98 -266 -163 l-28 -37 0 60 -1 59
-16 -29 c-8 -16 -28 -79 -44 -139 -18 -68 -42 -131 -64 -167 -49 -81 -71 -96
-41 -29 12 30 26 69 29 88 6 30 5 33 -13 28 -11 -3 -18 -1 -14 4 3 5 12 9 20
9 8 0 13 4 9 9 -3 6 3 33 14 60 10 28 17 51 14 51 -16 0 -88 -69 -127 -121
-58 -77 -88 -169 -85 -262 2 -52 -2 -72 -14 -85 -16 -15 -17 -1 -17 198 l0
215 41 58 c27 38 50 59 67 63 96 20 156 58 213 134 33 43 79 156 79 192 0 6
-20 -12 -44 -38 -40 -45 -121 -102 -170 -120 -11 -4 21 33 71 82 68 67 98 107
126 163 20 40 37 82 37 93 0 17 -4 16 -52 -8 -201 -102 -326 -255 -332 -408
-2 -39 -10 -75 -19 -88 -15 -21 -16 -11 -16 150 l-1 174 39 44 c47 54 78 118
91 186 13 66 13 135 0 143 -5 3 -10 0 -10 -7 0 -14 -53 -95 -94 -143 l-26 -30
6 30 c3 17 22 63 42 104 34 69 37 81 37 165 0 62 -6 109 -19 148 -23 72 -77
180 -92 185 -19 6 -98 -191 -114 -285 -12 -67 0 -131 39 -214 16 -34 33 -76
36 -93 l7 -30 -36 40 c-19 22 -47 62 -61 89 -30 61 -40 45 -32 -53 7 -88 36
-161 92 -231 l45 -58 0 -168 c0 -160 -1 -167 -17 -151 -13 12 -19 41 -23 96
-12 163 -126 303 -328 405 -30 15 -56 26 -58 24 -2 -2 1 -22 7 -44 18 -62 93
-169 177 -252 l77 -75 -54 29 c-30 16 -83 56 -118 90 l-65 61 7 -36 c24 -137
167 -291 270 -291 29 0 55 -23 96 -88 l29 -46 0 -210 c0 -209 0 -209 -20 -191
-17 15 -19 26 -14 66 16 117 -50 270 -154 359 -53 45 -62 49 -55 20 3 -11 10
-20 15 -20 5 0 6 -4 3 -10 -3 -5 -1 -10 4 -10 6 0 11 -7 11 -15 0 -8 -5 -15
-11 -15 -17 0 -4 -69 26 -143 l25 -61 -25 24 c-37 35 -72 112 -99 221 -13 52
-32 111 -40 130 l-16 34 4 -62 4 -62 -54 58 c-30 33 -79 72 -114 90 -63 34
-200 84 -208 76 -7 -7 96 -194 143 -260 56 -79 130 -147 196 -181 66 -33 149
-86 149 -95 0 -4 -39 6 -87 21 -110 35 -153 44 -153 33 0 -14 79 -86 134 -123
67 -45 137 -70 195 -70 l49 0 46 -72 46 -72 0 -178 c0 -108 -4 -178 -10 -178
-18 0 -30 39 -30 98 0 128 -68 254 -179 329 -66 45 -90 50 -53 10 12 -13 22
-29 22 -35 0 -7 5 -12 11 -12 6 0 8 -8 4 -19 -3 -10 -1 -31 5 -47 10 -27 9
-28 -5 -9 -9 11 -37 58 -63 103 -26 46 -59 93 -74 104 -16 11 -28 17 -28 15 0
-13 66 -161 95 -214 19 -35 31 -63 27 -63 -16 0 -30 17 -57 67 -65 121 -211
228 -325 238 l-55 5 38 -14 c55 -22 139 -81 164 -115 l23 -30 -53 35 c-76 50
-162 74 -311 84 -72 5 -132 8 -134 5 -8 -7 17 -33 117 -122 142 -127 202 -151
393 -162 108 -7 134 -12 181 -35 80 -39 94 -60 23 -36 -39 14 -82 20 -144 20
-104 0 -182 -9 -182 -21 0 -13 106 -64 190 -90 l74 -24 -74 -5 -75 -5 50 -24
c59 -27 211 -40 285 -22 53 12 56 10 110 -71 l40 -60 0 -106 0 -106 -30 29
c-17 16 -44 53 -60 82 -38 67 -105 117 -194 144 -60 19 -84 21 -200 16 -72 -3
-142 -9 -155 -14 -23 -9 -22 -11 34 -57 143 -116 269 -168 414 -170 l94 -1 49
-63 48 -63 0 -85 c0 -46 -3 -84 -7 -84 -14 0 -107 96 -135 137 -14 23 -47 55
-73 73 -45 31 -146 73 -154 64 -3 -2 11 -20 30 -40 l34 -36 -50 31 c-27 17
-65 36 -85 41 -43 12 -200 13 -200 2 0 -5 45 -53 100 -106 134 -130 177 -150
323 -152 l109 -2 54 -53 c36 -35 54 -62 54 -77 0 -24 -1 -24 -67 -18 -157 16
-298 53 -407 108 -47 24 -61 27 -67 16 -17 -27 -7 -38 64 -72 128 -61 243 -92
389 -104 l83 -7 0 -65 0 -65 -65 3 c-141 6 -290 47 -435 119 -49 25 -94 48
-98 53 -5 4 -1 33 8 65 19 65 14 128 -15 185 -21 40 -87 120 -100 120 -15 0
-33 -112 -26 -165 3 -27 19 -76 35 -107 34 -66 29 -65 -61 6 -60 48 -80 87
-59 115 32 44 70 139 76 190 10 84 -28 261 -56 261 -4 0 -23 -30 -40 -67 -27
-57 -34 -84 -38 -163 l-6 -95 -18 49 c-9 27 -17 68 -18 90 l-1 41 -13 -35 c-7
-19 -14 -64 -14 -100 -1 -52 5 -77 29 -128 l30 -63 -30 21 c-31 22 -150 150
-150 162 0 4 14 22 30 40 87 94 122 238 101 407 -7 56 -17 103 -21 106 -9 5
-102 -118 -129 -172 -45 -89 -62 -209 -42 -281 5 -17 6 -32 2 -32 -8 0 -103
142 -121 182 -12 24 -10 29 23 58 47 41 86 121 97 201 10 68 -6 319 -21 319
-18 0 -93 -101 -131 -177 -36 -72 -42 -94 -47 -170 l-6 -88 -33 73 c-18 40
-38 93 -44 117 -12 44 -12 44 25 80 60 58 78 104 75 188 l-3 71 -45 -77 c-25
-42 -46 -72 -48 -67 -5 15 27 120 54 172 13 26 20 48 14 48 -20 0 -102 -85
-125 -130 -23 -44 -23 -45 -33 -20 -26 69 -24 83 20 115 60 43 98 120 98 198
l0 61 -46 -74 c-26 -41 -49 -77 -52 -80 -17 -17 14 87 45 148 20 40 33 75 30
78 -3 3 -23 -12 -45 -34 l-39 -39 -6 56 c-5 62 -41 179 -61 199 -10 11 -18 1
-42 -50 -26 -56 -29 -74 -29 -158 0 -83 4 -103 28 -154 18 -38 22 -54 11 -45
-22 18 -61 98 -70 145 -7 36 -8 37 -15 14 -25 -88 6 -195 68 -235 17 -11 33
-30 36 -42 2 -13 2 -23 0 -23 -2 0 -35 16 -73 35 -110 56 -114 45 -20 -51 67
-68 78 -82 51 -69 -18 9 -54 35 -78 58 l-46 42 8 -35 c22 -104 113 -190 199
-190 22 0 28 -8 46 -66 11 -36 20 -70 20 -75 0 -5 -24 9 -52 31 -46 35 -177
94 -187 84 -2 -1 5 -26 15 -53 39 -111 132 -191 234 -205 42 -6 49 -10 70 -49
13 -23 35 -62 49 -87 l25 -45 -37 32 c-21 18 -54 41 -75 52 -47 24 -204 72
-211 65 -13 -12 58 -124 114 -180 70 -70 125 -94 220 -94 l61 0 50 -67 c27
-38 64 -85 83 -105 18 -21 29 -38 23 -38 -5 0 -15 7 -22 14 -39 48 -165 107
-279 131 -36 7 -74 17 -85 21 -17 7 -17 6 -1 -27 27 -52 125 -148 180 -178 45
-23 61 -26 160 -27 l110 -1 87 -64 c48 -35 86 -65 84 -66 -1 -1 -31 10 -66 24
-56 23 -83 27 -195 31 l-130 4 49 -50 c27 -28 77 -66 110 -83 51 -27 75 -34
142 -37 55 -3 98 1 135 11 l53 16 79 -43 78 -43 -59 -6 c-61 -7 -202 -53 -202
-67 0 -14 127 -60 183 -66 58 -7 147 8 211 35 35 15 45 16 71 5 52 -22 207
-55 295 -62 l85 -7 3 -107 3 -108 -51 0 c-28 0 -94 5 -148 11 -729 79 -1345
542 -1565 1176 -172 493 -104 1011 193 1463 151 229 323 397 574 562 239 156
452 238 738 283 103 16 395 19 508 4z m-1120 -55 c0 -24 -26 -16 -39 12 -16
36 -2 53 21 25 10 -13 18 -29 18 -37z m1950 -54 c0 -5 -5 -12 -11 -16 -14 -8
-33 11 -25 25 7 11 36 4 36 -9z m-2152 -39 c2 -13 -1 -28 -7 -34 -16 -16 -26
0 -11 18 13 16 8 19 -25 15 -17 -2 -17 0 -5 14 18 23 44 16 48 -13z m2259 1
c20 -13 4 -54 -20 -50 -11 2 -22 9 -25 16 -2 8 2 10 14 5 14 -5 16 -2 12 15
-6 23 -1 27 19 14z m-1157 -203 c0 -51 -4 -78 -10 -74 -18 11 -12 155 7 155 2
0 3 -36 3 -81z m-1336 32 c27 -30 9 -47 -20 -20 -13 12 -24 26 -24 31 0 15 27
8 44 -11z m2696 10 c0 -5 -9 -19 -19 -32 -26 -32 -49 -14 -25 19 15 22 44 30
44 13z m118 -124 c-4 -28 -46 -30 -62 -4 -9 15 -7 21 8 32 25 19 58 2 54 -28z
m-2930 13 l23 -19 -21 -21 c-28 -28 -34 -25 -26 11 5 27 4 30 -14 24 -19 -6
-27 5 -13 18 11 11 27 7 51 -13z m3082 -157 c0 -7 -7 -13 -15 -13 -8 0 -15 -7
-15 -15 0 -8 -4 -15 -10 -15 -5 0 -10 7 -10 15 0 8 -9 15 -20 15 -11 0 -20 5
-20 10 0 6 14 10 30 10 17 0 30 5 30 10 0 6 -5 10 -11 10 -5 0 -7 5 -4 11 8
13 45 -18 45 -38z m-3240 22 c-17 -20 -5 -32 15 -15 21 17 24 10 11 -23 l-12
-27 -24 25 c-19 20 -21 27 -10 40 7 8 17 15 22 15 6 0 5 -7 -2 -15z m-87 -142
c10 -17 -6 -73 -20 -73 -11 0 -12 9 -8 38 6 35 5 36 -9 18 -9 -11 -19 -17 -22
-13 -10 10 16 37 37 37 10 0 20 -3 22 -7z m3402 -14 c-6 -19 -4 -21 14 -16 26
6 27 -4 2 -27 -17 -16 -19 -15 -35 9 -14 21 -15 29 -5 41 17 21 31 17 24 -7z
m105 -148 c14 -27 13 -41 -5 -41 -17 0 -39 36 -30 50 10 16 23 12 35 -9z
m-3604 -2 c10 -16 -23 -46 -36 -33 -6 6 -8 18 -4 27 7 19 29 22 40 6z m-91
-189 c10 -16 -14 -50 -30 -44 -18 7 -19 26 -3 42 15 15 25 15 33 2z m3784 -11
c11 -18 11 -23 -1 -30 -20 -13 -24 -11 -36 15 -8 19 -8 26 1 30 20 8 22 7 36
-15z m-3844 -166 c-8 -35 -8 -35 -29 -27 -10 4 -15 13 -12 21 3 8 6 19 6 24 0
5 9 9 21 9 18 0 20 -4 14 -27z m3909 11 c10 -26 7 -34 -13 -34 -20 0 -35 25
-25 41 9 14 31 10 38 -7z m-2400 -176 c33 -31 57 -57 51 -57 -15 0 -198 152
-203 168 -6 19 78 -42 152 -111z m995 86 c-31 -33 -179 -147 -184 -142 -7 7
74 83 140 132 64 48 83 52 44 10z m-2168 -50 c-7 -51 -9 -53 -10 -19 0 22 2
50 5 63 11 41 14 17 5 -44z m3207 -9 l0 -40 -9 40 c-4 22 -8 49 -8 60 l0 20 9
-20 c5 -11 8 -38 8 -60z m-3588 -10 c0 -28 -12 -43 -31 -38 -22 6 -22 4 -9 37
10 26 40 27 40 1z m4000 -17 c0 -11 -8 -18 -20 -18 -14 0 -20 7 -20 24 0 26
20 40 32 22 4 -6 8 -19 8 -28z m-4030 -155 c0 -28 -16 -47 -34 -40 -16 6 -22
38 -9 50 13 14 43 7 43 -10z m4060 -7 c0 -29 -19 -44 -31 -25 -16 25 -10 49
11 49 15 0 20 -7 20 -24z m-4078 -153 c34 -31 17 -83 -27 -83 -60 0 -60 98 -1
100 5 0 18 -7 28 -17z m4113 -3 c24 -27 13 -68 -22 -76 -20 -5 -31 -2 -45 16
-23 28 -23 35 2 60 25 25 42 25 65 0z m-1285 -175 c-44 -23 -214 -75 -199 -60
8 7 201 75 214 74 6 0 -1 -6 -15 -14z m-1475 -29 c55 -19 95 -35 90 -35 -18
-2 -157 39 -184 54 -43 24 -11 17 94 -19z m-1345 -1 c0 -18 -5 -25 -20 -25
-15 0 -20 7 -20 25 0 18 5 25 20 25 15 0 20 -7 20 -25z m4080 0 c0 -20 -5 -25
-25 -25 -18 0 -25 5 -25 18 0 24 8 32 32 32 13 0 18 -7 18 -25z m-3295 -144
c-26 -81 -43 -109 -30 -48 10 44 46 139 51 134 3 -2 -7 -41 -21 -86z m2468 57
c18 -44 39 -129 33 -135 -4 -4 -56 147 -56 163 0 14 12 0 23 -28z m807 -69 c0
-23 -27 -36 -42 -21 -5 5 -7 19 -4 30 8 26 46 18 46 -9z m-4037 2 c6 -24 0
-31 -25 -31 -13 0 -18 7 -18 25 0 31 35 35 43 6z m27 -130 c0 -5 3 -16 6 -25
5 -12 0 -16 -20 -16 -19 0 -26 5 -26 18 0 10 3 22 7 25 10 10 33 8 33 -2z
m3967 1 c7 -4 10 -17 7 -29 -7 -25 -44 -20 -44 6 0 29 14 37 37 23z m-3042
-138 c-14 -37 -28 -70 -31 -73 -11 -10 8 63 27 108 30 68 33 42 4 -35z m2119
-35 c6 -32 5 -32 -15 11 -11 25 -22 59 -25 75 -4 27 -3 26 15 -11 10 -22 21
-56 25 -75z m-2628 60 c8 -14 -10 -11 -32 6 -18 13 -18 14 4 8 12 -3 25 -9 28
-14z m3474 -59 c-9 -16 -8 -22 5 -26 8 -3 15 -10 15 -14 0 -10 -38 -1 -46 11
-7 11 14 49 27 49 6 0 6 -7 -1 -20z m-3810 -47 c0 -7 -3 -13 -7 -13 -5 0 -18
-3 -30 -6 -13 -4 -23 -2 -23 4 0 5 9 12 21 15 16 4 19 11 14 29 -6 22 -6 22 9
4 9 -11 16 -26 16 -33z m1470 37 c0 -5 -4 -10 -9 -10 -6 0 -13 5 -16 10 -3 6
1 10 9 10 9 0 16 -4 16 -10z m43 -87 c32 -9 55 -18 53 -21 -7 -6 -147 26 -166
38 -19 12 30 5 113 -17z m877 18 c-24 -13 -158 -43 -172 -38 -12 4 140 45 172
46 13 0 13 -1 0 -8z m1390 -76 c9 -10 9 -19 2 -27 -6 -7 -10 -17 -10 -23 1
-19 -30 -29 -46 -16 -22 19 -20 34 4 26 15 -5 18 -3 14 9 -4 9 -1 16 6 16 10
0 10 3 0 15 -10 12 -10 15 3 15 8 0 20 -7 27 -15z m-3729 -5 c23 -13 25 -43 3
-61 -31 -26 -70 25 -44 56 15 18 16 18 41 5z m1402 -181 c34 -11 67 -25 72
-31 7 -8 5 -9 -5 -6 -8 3 -40 13 -70 22 -30 8 -62 20 -70 26 -25 16 5 12 73
-11z m948 6 c-48 -21 -146 -46 -134 -34 13 13 121 48 148 48 14 0 9 -4 -14
-14z m-2243 -28 c3 -21 -2 -29 -20 -36 -28 -11 -48 3 -48 34 0 29 9 37 40 33
19 -2 26 -10 28 -31z m3526 17 c4 -9 -1 -27 -9 -40 -15 -23 -17 -23 -40 -8
-30 19 -30 19 -7 43 21 24 48 26 56 5z m-3397 -190 c3 -8 -1 -22 -9 -30 -13
-13 -16 -13 -28 0 -10 13 -10 19 0 31 16 19 29 19 37 -1z m3240 0 c9 -23 -13
-40 -32 -24 -12 10 -13 16 -4 26 15 18 28 18 36 -2z m-3141 -119 c4 -8 0 -22
-7 -31 -12 -14 -14 -14 -26 2 -9 13 -10 21 -2 31 15 17 28 17 35 -2z m3033 -2
c12 -23 -4 -53 -29 -53 -11 0 -20 2 -20 4 0 2 -3 11 -6 19 -5 14 20 47 36 47
5 0 13 -8 19 -17z m-2902 -114 c14 -14 6 -39 -12 -39 -18 0 -28 17 -21 35 6
18 18 19 33 4z m2708 -88 c-13 -14 -17 -14 -32 1 -14 14 -14 20 -3 33 12 14
15 14 32 -2 17 -15 17 -18 3 -32z m-2515 -93 c0 -15 -18 -17 -35 -4 -25 18
-11 40 15 23 11 -6 20 -15 20 -19z m2354 -40 c-9 -14 -21 -9 -39 18 -14 21
-15 28 -4 35 14 8 52 -38 43 -53z m-2221 -4 c9 -9 -14 -54 -28 -54 -20 0 -24
11 -13 36 11 23 28 31 41 18z m2082 -25 c10 -15 -1 -23 -20 -15 -9 3 -13 10
-10 16 8 13 22 13 30 -1z m-47 -60 c-2 -6 -8 -10 -13 -10 -5 0 -11 4 -13 10
-2 6 4 11 13 11 9 0 15 -5 13 -11z m-1828 -18 c0 -24 -21 -61 -35 -61 -17 0
-20 23 -5 51 11 19 40 27 40 10z m1708 -16 c16 -35 15 -45 -6 -45 -17 0 -46
53 -34 64 12 13 29 5 40 -19z m-1594 -23 c2 -4 -2 -22 -9 -39 -10 -23 -19 -31
-29 -27 -19 7 -19 4 -5 43 10 29 32 41 43 23z m1475 -23 c11 -32 8 -49 -10
-49 -13 0 -31 50 -25 67 9 22 23 15 35 -18z m-1359 -30 c0 -31 -18 -59 -35
-53 -18 7 -18 14 -5 48 11 31 40 35 40 5z m1242 -3 c11 -26 5 -56 -11 -56 -11
0 -33 59 -25 71 9 16 24 10 36 -15z m-1126 -19 c8 -23 -14 -67 -31 -61 -14 6
-13 40 2 67 7 11 23 8 29 -6z m1008 -19 c7 -33 -7 -59 -23 -43 -12 14 -22 61
-14 69 15 15 31 4 37 -26z m-888 -22 c-3 -11 -6 -27 -6 -33 0 -7 -9 -13 -20
-13 -20 0 -21 14 -5 67 7 23 37 2 31 -21z m769 -13 c6 -29 4 -33 -13 -33 -26
0 -42 58 -21 71 18 11 25 2 34 -38z m-123 -18 c2 -21 -2 -31 -13 -33 -21 -4
-36 58 -17 69 17 11 26 0 30 -36z m-522 16 c0 -30 -11 -51 -26 -51 -14 0 -20
51 -7 63 13 14 33 6 33 -12z m113 1 c10 -14 -6 -62 -19 -62 -9 0 -14 12 -14
35 0 24 5 35 14 35 8 0 17 -3 19 -8z m285 -29 c-4 -52 -28 -56 -28 -4 0 30 4
41 16 41 11 0 14 -9 12 -37z"/>
<path d="M2438 3705 c-3 -3 -1 -28 5 -55 8 -40 14 -50 30 -50 17 0 19 5 13 31
-3 17 -6 42 -6 55 0 17 -6 24 -18 24 -10 0 -21 -2 -24 -5z"/>
<path d="M2875 3699 c-4 -5 -9 -34 -12 -64 -5 -46 -3 -55 10 -55 17 0 22 12
32 76 5 32 3 43 -9 47 -8 3 -18 2 -21 -4z"/>
<path d="M2282 3671 c-10 -6 -7 -29 17 -110 35 -117 37 -121 57 -121 18 0 18
2 -5 85 -11 39 -24 89 -31 113 -11 43 -16 48 -38 33z"/>
<path d="M3019 3597 c-11 -40 -25 -85 -30 -101 -13 -41 -11 -66 5 -66 15 0 22
15 60 135 31 96 31 91 6 98 -17 4 -23 -4 -41 -66z"/>
<path d="M2112 3611 c-10 -6 -2 -32 36 -113 27 -58 55 -108 61 -112 26 -17 21
30 -13 107 -19 45 -37 89 -38 97 -5 26 -24 35 -46 21z"/>
<path d="M3156 3491 c-44 -100 -50 -131 -26 -131 9 0 110 201 110 219 0 7 -22
21 -33 21 -1 0 -24 -49 -51 -109z"/>
<path d="M1955 3519 c-7 -10 115 -201 135 -214 6 -4 13 1 16 9 7 19 -113 216
-131 216 -8 0 -17 -5 -20 -11z"/>
<path d="M3308 3428 c-76 -115 -82 -128 -69 -141 13 -13 17 -8 98 111 50 75
54 85 41 99 -14 13 -21 6 -70 -69z"/>
<path d="M1820 3415 c-13 -16 10 -47 118 -163 36 -39 62 -48 62 -22 0 8 -158
200 -165 200 -1 0 -8 -7 -15 -15z"/>
<path d="M3431 3314 c-84 -90 -98 -112 -78 -120 17 -6 172 150 172 173 0 35
-25 20 -94 -53z"/>
<path d="M1680 3274 c-15 -18 -23 -10 102 -113 79 -66 114 -81 106 -46 -3 11
-182 175 -191 175 -3 0 -10 -7 -17 -16z"/>
<path d="M1432 3258 c-25 -25 -4 -78 32 -78 10 0 36 32 36 45 0 17 -27 45 -44
45 -6 0 -17 -5 -24 -12z"/>
<path d="M3810 3256 c-6 -8 -10 -25 -8 -38 2 -19 9 -23 38 -23 29 0 36 4 38
23 4 28 -14 52 -38 52 -10 0 -23 -7 -30 -14z"/>
<path d="M3618 3253 c-1 -5 -41 -41 -88 -82 -47 -41 -86 -78 -88 -83 -2 -4 3
-11 11 -14 14 -5 207 139 207 155 0 9 -22 31 -31 31 -4 0 -9 -3 -11 -7z"/>
<path d="M1580 3120 c0 -5 5 -10 11 -10 5 0 7 5 4 10 -3 6 -8 10 -11 10 -2 0
-4 -4 -4 -10z"/>
<path d="M1535 3059 c-4 -11 -5 -21 -3 -23 1 -1 55 -27 118 -58 108 -53 152
-61 121 -24 -11 13 -212 126 -225 126 -3 0 -8 -9 -11 -21z"/>
<path d="M3650 3009 c-97 -54 -122 -77 -94 -86 5 -2 61 22 123 52 87 43 112
59 107 71 -3 9 -6 18 -6 20 0 12 -35 -3 -130 -57z"/>
<path d="M1192 2988 c3 -24 8 -50 11 -58 6 -13 -2 -14 -49 -12 -39 3 -54 1
-50 -7 12 -19 59 -38 114 -46 l52 -7 -10 27 c-5 14 -10 38 -10 53 0 31 -34 92
-51 92 -7 0 -9 -15 -7 -42z"/>
<path d="M4077 3001 c-24 -29 -43 -101 -35 -133 5 -22 97 -3 133 28 l30 25
-58 -4 c-39 -2 -56 0 -53 7 37 87 27 129 -17 77z"/>
<path d="M1515 3010 c-3 -5 1 -10 10 -10 9 0 13 5 10 10 -3 6 -8 10 -10 10 -2
0 -7 -4 -10 -10z"/>
<path d="M1286 2958 c-14 -56 3 -143 28 -135 14 5 27 58 20 82 -11 41 -27 75
-34 75 -4 0 -10 -10 -14 -22z"/>
<path d="M3986 2959 c-23 -33 -20 -139 3 -139 25 0 42 118 22 149 -7 10 -12 8
-25 -10z"/>
<path d="M1447 2853 c-8 -7 -10 -43 -3 -43 3 0 59 -13 124 -30 140 -35 145
-35 140 -13 -2 11 -39 27 -128 54 -69 21 -125 38 -126 39 0 0 -4 -3 -7 -7z"/>
<path d="M3775 2829 c-33 -10 -86 -25 -117 -34 -36 -10 -58 -22 -58 -31 0 -18
19 -18 100 2 138 32 170 44 170 65 0 23 -15 23 -95 -2z"/>
<path d="M1162 2831 c-24 -15 48 -67 103 -74 27 -4 51 -5 53 -2 11 11 -53 66
-87 75 -43 12 -52 12 -69 1z"/>
<path d="M4077 2830 c-35 -7 -97 -53 -97 -73 0 -10 76 1 105 15 31 16 65 50
59 59 -6 10 -13 10 -67 -1z"/>
<path d="M1456 2781 c-3 -5 1 -11 9 -14 9 -4 12 -1 8 9 -6 16 -10 17 -17 5z"/>
<path d="M1490 2749 c0 -11 5 -17 10 -14 6 3 10 13 10 21 0 8 -4 14 -10 14 -5
0 -10 -9 -10 -21z"/>
<path d="M1544 2656 c-9 -15 -24 -19 -80 -20 -67 -1 -69 -2 -72 -28 l-3 -28
270 0 c149 0 271 3 271 8 0 4 -7 16 -15 26 -13 17 -30 19 -162 21 -196 3 -191
2 -195 23 -3 16 -4 16 -14 -2z"/>
<path d="M3695 2638 c-27 -3 -105 -7 -172 -7 -110 -1 -123 -3 -133 -20 -5 -11
-10 -22 -10 -25 0 -3 122 -6 270 -6 251 0 270 1 270 18 0 36 -15 43 -96 45
-43 1 -101 -1 -129 -5z"/>
<path d="M1380 2460 c0 -34 182 -59 456 -62 l232 -3 -30 38 -30 37 -314 0
c-208 0 -314 -3 -314 -10z"/>
<path d="M3276 2434 l-28 -36 263 5 c214 4 278 8 338 23 41 11 76 25 79 32 3
9 -64 12 -310 12 l-313 0 -29 -36z"/>
<path d="M1388 2294 c-20 -20 3 -24 137 -24 126 0 151 -3 197 -22 46 -19 76
-22 228 -25 l175 -4 -25 21 c-60 50 -49 49 -385 55 -176 4 -323 3 -327 -1z"/>
<path d="M3425 2293 l-150 -4 -45 -35 -45 -36 175 4 c156 3 180 6 219 26 40
20 60 22 193 22 125 0 148 2 148 15 0 16 -53 16 -495 8z"/>
<path d="M1580 1958 c0 -28 19 -36 103 -43 48 -4 87 -5 87 -2 0 2 -17 16 -38
31 -30 21 -50 26 -95 26 -39 0 -57 -4 -57 -12z"/>
<path d="M3560 1939 l-35 -29 90 6 c64 5 94 11 103 22 21 28 14 32 -55 32 -61
-1 -72 -4 -103 -31z"/>
<path d="M1791 1841 c-8 -5 -11 -16 -8 -25 5 -12 21 -16 72 -16 36 0 65 2 65
5 0 6 -90 45 -104 45 -6 0 -17 -4 -25 -9z"/>
<path d="M3420 1825 l-45 -24 71 -1 c55 0 73 4 78 15 5 15 -21 35 -46 35 -7
-1 -33 -12 -58 -25z"/>
<path d="M1790 1665 l0 -25 150 0 c83 0 150 2 150 4 0 2 -15 14 -34 25 -29 18
-49 21 -150 21 l-116 0 0 -25z"/>
<path d="M3245 1665 l-40 -24 158 -1 158 0 -3 23 c-3 21 -7 22 -118 25 -107 2
-118 1 -155 -23z"/>
<path d="M4101 3470 c-14 -8 -7 -30 9 -30 11 0 21 28 12 34 -5 3 -14 1 -21 -4z"/>
<path d="M780 1330 c0 -13 5 -20 13 -17 6 2 12 10 12 17 0 7 -6 15 -12 18 -8
2 -13 -5 -13 -18z"/>
<path d="M873 1164 c-9 -23 11 -38 26 -20 13 16 7 36 -10 36 -5 0 -12 -7 -16
-16z"/>
<path d="M4410 1155 c0 -8 5 -15 10 -15 6 0 10 7 10 15 0 8 -4 15 -10 15 -5 0
-10 -7 -10 -15z"/>
<path d="M4150 844 c0 -8 5 -12 10 -9 6 4 8 11 5 16 -9 14 -15 11 -15 -7z"/>
</g>
</svg>
