<?xml version="1.0" encoding="UTF-8"?>
<svg version="1.1" xmlns="http://www.w3.org/2000/svg" width="192" height="192">
<path d="M0 0 C63.36 0 126.72 0 192 0 C192 63.36 192 126.72 192 192 C128.64 192 65.28 192 0 192 C0 128.64 0 65.28 0 0 Z " fill="#FBFBFC" transform="translate(0,0)"/>
<path d="M0 0 C3.50377532 1.40151013 6.40222816 2.70121142 9.609375 4.56640625 C10.44597656 5.05173828 11.28257813 5.53707031 12.14453125 6.03710938 C13.00433594 6.54048828 13.86414063 7.04386719 14.75 7.5625 C16.06291016 8.32336914 16.06291016 8.32336914 17.40234375 9.09960938 C23.85776612 12.85776612 23.85776612 12.85776612 25 14 C25.09584998 15.54353131 25.1218807 17.09145108 25.12025452 18.63795471 C25.12162918 19.64061371 25.12300385 20.64327271 25.12442017 21.67631531 C25.11902725 23.34002922 25.11902725 23.34002922 25.11352539 25.03735352 C25.11367142 26.19817444 25.11381744 27.35899536 25.1139679 28.55499268 C25.11326817 32.41298252 25.10547298 36.27092478 25.09765625 40.12890625 C25.09579228 42.79548728 25.09431912 45.46206564 25.09336853 48.12864685 C25.09025548 54.4432888 25.08204244 60.75791351 25.07201904 67.07254785 C25.0608571 74.25985633 25.05534725 81.44716561 25.05032361 88.6344806 C25.0398598 103.42299589 25.02226086 118.21149765 25 133 C21.31049406 132.32765088 18.67661484 131.44765582 15.4609375 129.49609375 C14.63335937 129.00302734 13.80578125 128.50996094 12.953125 128.00195312 C12.10234375 127.48568359 11.2515625 126.96941406 10.375 126.4375 C8.67807405 125.40940748 6.97769307 124.38698984 5.2734375 123.37109375 C4.52497559 122.91661865 3.77651367 122.46214355 3.00537109 121.99389648 C0.92502982 120.77796535 0.92502982 120.77796535 -2 121 C-4.42626816 122.20734931 -4.42626816 122.20734931 -7.03515625 123.84375 C-8.00904297 124.43027344 -8.98292969 125.01679688 -9.98632812 125.62109375 C-11.5090332 126.55115234 -11.5090332 126.55115234 -13.0625 127.5 C-15.07185483 128.72264348 -17.08346294 129.941594 -19.09765625 131.15625 C-19.98976807 131.70087891 -20.88187988 132.24550781 -21.80102539 132.80664062 C-24 134 -24 134 -26 134 C-26.23179612 122.36951152 -26.40942902 110.73957308 -26.51812172 99.10724449 C-26.57029294 93.70559435 -26.64103659 88.30552522 -26.75439453 82.90478516 C-26.86313022 77.69158053 -26.9228567 72.47989519 -26.94877243 67.26564407 C-26.96723707 65.27752378 -27.00329795 63.2894859 -27.05730057 61.3020134 C-27.46429383 45.70148046 -27.46429383 45.70148046 -23.84674072 41.49795532 C-21.25272353 39.91890681 -18.87833876 38.9378845 -16 38 C-14.65819411 37.25437623 -13.33042084 36.48171339 -12.03125 35.6640625 C-10.85476269 34.98334386 -9.67769507 34.30362698 -8.5 33.625 C-7.89414062 33.27050781 -7.28828125 32.91601562 -6.6640625 32.55078125 C-2.23220319 30 -2.23220319 30 0 30 C0 20.1 0 10.2 0 0 Z " fill="#062A4C" transform="translate(70,29)"/>
<path d="M0 0 C-0.02731201 0.87736816 -0.05462402 1.75473633 -0.08276367 2.65869141 C-0.15841092 5.93731695 -0.18418797 9.20869998 -0.17700195 12.48779297 C-0.18394904 13.90209032 -0.21035547 15.31643809 -0.25708008 16.72998047 C-0.40091766 21.31662165 -0.29491115 25.55027463 1 30 C4.91694538 33.81800052 10.06727901 35.35901701 15.18690491 37.05693054 C18.90882519 38.63419771 21.23417929 40.02446498 24 43 C26.2207269 49.41760107 25.3901106 56.69612876 25.171875 63.37109375 C25.14947769 65.37885967 25.13240358 67.38669142 25.12042236 69.39454651 C25.07472264 74.66530215 24.95696964 79.93205368 24.82397461 85.20123291 C24.70094732 90.58347396 24.64635531 95.96636588 24.5859375 101.34960938 C24.45745371 111.9014937 24.25280829 122.45041323 24 133 C15.86036596 130.4840643 6.91622989 127.40954827 1 121 C-1.88241981 114.81964313 -0.98066779 107.6204575 -0.66015625 100.9921875 C-0.62840449 99.05602627 -0.60422657 97.1197274 -0.58726501 95.18338013 C-0.52267912 90.11282922 -0.35606235 85.05070392 -0.16729736 79.98345947 C0.00736696 74.80263298 0.08440577 69.62042877 0.16992188 64.4375 C0.35165372 54.28798555 0.64132884 44.14469598 1 34 C0.34 34 -0.32 34 -1 34 C-0.9800145 35.06409088 -0.96002899 36.12818176 -0.93943787 37.22451782 C-0.75689327 47.2587461 -0.62203365 57.29263711 -0.53369045 67.3281498 C-0.48674361 72.4875375 -0.42308549 77.64558369 -0.32104492 82.80419922 C-0.2231601 87.78396116 -0.16942351 92.76243417 -0.14610481 97.74308395 C-0.129491 99.64185254 -0.09704513 101.54055148 -0.04842949 103.43877029 C0.31790655 118.33680543 0.31790655 118.33680543 -2.95419312 122.46618652 C-5.27380367 124.03928449 -7.37277887 125.05172589 -10 126 C-11.02609375 126.60328125 -12.0521875 127.2065625 -13.109375 127.828125 C-13.98078125 128.29734375 -14.8521875 128.7665625 -15.75 129.25 C-16.63171875 129.72953125 -17.5134375 130.2090625 -18.421875 130.703125 C-20.90691942 131.95317765 -23.41267032 132.98343331 -26 134 C-26.35101846 118.51029466 -26.61520683 103.02088799 -26.77718258 87.52813816 C-26.85440722 80.33356548 -26.9595909 73.14146887 -27.1315918 65.94848633 C-27.28151208 59.67589089 -27.37796241 53.40508828 -27.41132742 47.13075107 C-27.43082741 43.80964337 -27.4842656 40.49483438 -27.58595085 37.17508125 C-28.18074189 16.94891752 -28.18074189 16.94891752 -24.5417366 12.0280571 C-20.51735997 8.44987224 -16.02521511 6.76161236 -11 5 C-9.20636738 4.01977889 -7.42804345 3.00916221 -5.6875 1.9375 C-2.26262626 0 -2.26262626 0 0 0 Z " fill="#04284B" transform="translate(122,29)"/>
<path d="M0 0 C0.23179612 11.63048848 0.40942902 23.26042692 0.51812172 34.89275551 C0.57029294 40.29440565 0.64103659 45.69447478 0.75439453 51.09521484 C0.86313022 56.30841947 0.9228567 61.52010481 0.94877243 66.73435593 C0.96723707 68.72247622 1.00329795 70.7105141 1.05730057 72.6979866 C1.46451946 88.307168 1.46451946 88.307168 -2.18003845 92.51989746 C-4.76867857 94.0968382 -7.11878499 95.0907956 -10 96 C-11.05832031 96.60328125 -12.11664063 97.2065625 -13.20703125 97.828125 C-14.06683594 98.29734375 -14.92664063 98.7665625 -15.8125 99.25 C-16.68519531 99.72953125 -17.55789062 100.2090625 -18.45703125 100.703125 C-20.92815623 101.96336078 -23.41977129 102.9871748 -26 104 C-26.20861797 92.3694298 -26.36848837 80.73930522 -26.46630955 69.10724449 C-26.51326228 63.70575207 -26.57693264 58.30554039 -26.67895508 52.90478516 C-26.77681664 47.69161041 -26.83057205 42.47966649 -26.85389519 37.26564407 C-26.87051297 35.27757002 -26.90296627 33.2895627 -26.95157051 31.3020134 C-27.31767783 15.70942835 -27.31767783 15.70942835 -24.0713501 11.49795532 C-21.73975493 9.91617841 -19.64294247 8.94619883 -17 8 C-15.70583469 7.24743064 -14.42377665 6.4729783 -13.1640625 5.6640625 C-11.98626958 4.98109724 -10.80661268 4.3013351 -9.625 3.625 C-9.02300781 3.27050781 -8.42101562 2.91601562 -7.80078125 2.55078125 C-4.97836583 0.92992627 -3.31165161 0 0 0 Z " fill="#05294B" transform="translate(174,59)"/>
<path d="M0 0 C3.57112605 1.39974722 6.89304805 2.95243452 10.25 4.8125 C11.12140625 5.29332031 11.9928125 5.77414063 12.890625 6.26953125 C13.91671875 6.84058594 14.9428125 7.41164063 16 8 C20.455 10.475 20.455 10.475 25 13 C25 42.7 25 72.4 25 103 C20.96492495 102.19298499 19.19221522 101.76548142 15.8984375 99.78515625 C15.16109375 99.34623047 14.42375 98.90730469 13.6640625 98.45507812 C12.53097656 97.76575195 12.53097656 97.76575195 11.375 97.0625 C10.611875 96.60681641 9.84875 96.15113281 9.0625 95.68164062 C5.99599581 93.84442803 2.97512088 91.98341392 0 90 C-0.28613439 87.09929946 -0.37808727 84.41303409 -0.34057617 81.51123047 C-0.34101425 80.63311707 -0.34145233 79.75500366 -0.34190369 78.85028076 C-0.3398086 75.93902584 -0.31644375 73.02834218 -0.29296875 70.1171875 C-0.28737536 68.10222692 -0.28310405 66.08726226 -0.28010559 64.07229614 C-0.26863663 58.76211332 -0.23915182 53.45217563 -0.20599365 48.14208984 C-0.17533693 42.72627072 -0.16160967 37.31041208 -0.14648438 31.89453125 C-0.11428408 21.26291297 -0.06306299 10.63147685 0 0 Z " fill="#06294C" transform="translate(18,59)"/>
<path d="M0 0 C0.66 0.33 1.32 0.66 2 1 C1.02404877 1.72603424 1.02404877 1.72603424 0.02838135 2.46673584 C-2.80247209 6.00221479 -2.53119474 9.19816479 -2.45410156 13.53222656 C-2.45468567 14.39112488 -2.45526978 15.25002319 -2.45587158 16.13494873 C-2.45308745 18.97058695 -2.42198017 21.80517069 -2.390625 24.640625 C-2.38316378 26.60788397 -2.37747028 28.57515037 -2.37347412 30.54241943 C-2.35820849 35.71786045 -2.31891849 40.89285178 -2.2746582 46.06811523 C-2.23372565 51.35003577 -2.2154674 56.63202904 -2.1953125 61.9140625 C-2.15242529 72.27623914 -2.08416255 82.63808216 -2 93 C-2.66 93 -3.32 93 -4 93 C-4.09258084 81.31733761 -4.16370445 69.63476215 -4.20724869 57.95180798 C-4.22814521 52.52722934 -4.25650068 47.10290123 -4.30175781 41.6784668 C-4.34514169 36.44595685 -4.36912154 31.21368823 -4.37950897 25.98101234 C-4.38691375 23.98224397 -4.40137316 21.98348917 -4.42292023 19.98482323 C-4.45185508 17.19035421 -4.45596017 14.39688904 -4.45410156 11.60229492 C-4.46848267 10.77151428 -4.48286377 9.94073364 -4.49768066 9.08477783 C-4.45705348 3.4591405 -4.45705348 3.4591405 -1.97161865 0.96235657 C-1.3209845 0.6447789 -0.67035034 0.32720123 0 0 Z " fill="#47617A" transform="translate(48,70)"/>
</svg>
