<svg xmlns="http://www.w3.org/2000/svg" version="1.0" width="305.000000pt" height="316.000000pt" viewBox="0 0 305.000000 316.000000" preserveAspectRatio="xMidYMid meet">

<g transform="translate(0.000000,316.000000) scale(0.100000,-0.100000)" fill="#0bb5f3" stroke="none">
<path d="M1658 2820 c-202 -34 -400 -155 -512 -313 -56 -80 -89 -145 -117 -237 -34 -108 -34 -292 0 -400 70 -224 213 -388 424 -485 71 -32 184 -65 224 -65 33 0 53 -11 53 -28 0 -13 -11 -14 -73 -9 -369 31 -668 341 -694 718 -4 57 -2 93 6 110 7 13 -13 -3 -44 -36 -64 -68 -135 -201 -162 -305 -12 -46 -17 -103 -17 -195 0 -120 3 -137 33 -225 71 -210 200 -359 395 -457 108 -54 202 -75 341 -76 145 -1 233 20 369 91 152 77 286 227 353 392 92 228 64 490 -73 702 -76 117 -234 251 -342 289 l-32 11 0 131 0 132 19 -41 c23 -49 88 -107 140 -122 76 -23 71 -37 71 208 l0 220 -22 0 c-35 0 -120 -44 -151 -78 -16 -16 -35 -47 -42 -68 -14 -38 -14 -37 -15 54 l0 92 -42 -1 c-24 -1 -64 -5 -90 -9z" fill="#0bb5f3"/>
<path d="M274 1493 c24 -297 140 -554 346 -767 324 -334 779 -460 1233 -340 112 30 327 134 417 203 36 27 105 90 153 140 204 212 319 467 343 764 l7 87 -217 0 -216 0 0 -40 c0 -64 -29 -188 -62 -267 -79 -191 -220 -338 -409 -427 -123 -59 -185 -71 -354 -71 -129 0 -160 3 -225 23 -330 104 -558 379 -587 710 l-6 72 -215 0 -215 0 7 -87z" fill="#0bb5f3"/>
</g>
</svg>